# xmcd
#
# Track frame offsets:
#	150
#	21804
#	41611
#	67181
#	86396
#	107438
#	129200
#	154748
#	180245
#	204395
#	228333
#	252630
#
# Disc length: 3602 seconds
#
# Revision: 0
# Processed by: cddbd v1.5.2PL0 Copyright (c) Steve Scherf et al.
# Submitted via: EZCDAudioConverter 8.0.2.1
#
DISCID=920e100c
DTITLE=Ngọc Anh - st. Phú Quang. Romance Cho Anh
DYEAR=2008
DGENRE=
TTITLE0=Ngọc Anh - Trong ánh chớp số phận
TTITLE1=Ngọc Anh - Chuyện bình thường số 7
TTITLE2=Ngọc Anh - Romance 1
TTITLE3=Ngọc Anh - Chiều hoang
TTITLE4=Ngọc Anh, Hà Anh Tuấn - Mây xưa
TTITLE5=Ngọc Anh - Lời rêu
TTITLE6=Ngọc Anh - Khoảnh khắc
TTITLE7=Ngọc Anh - Romance 2
TTITLE8=Ngọc Anh - Có một ngày
TTITLE9=Ngọc Anh - Lang thang
TTITLE10=Ngọc Anh, Hà Anh Tuấn - Cho em và cũng là cho anh
TTITLE11=Ngọc Anh - Trong ánh chớp số phận
EXTD=
EXTT0=
EXTT1=
EXTT2=
EXTT3=
EXTT4=
EXTT5=
EXTT6=
EXTT7=
EXTT8=
EXTT9=
EXTT10=
EXTT11=
PLAYORDER=
